<svg xmlns="http://www.w3.org/2000/svg" xmlns:xlink="http://www.w3.org/1999/xlink" width="361" zoomAndPan="magnify" viewBox="0 0 270.75 275.25" height="367" preserveAspectRatio="xMidYMid meet" version="1.0"><defs><clipPath id="5cb324ca04"><path d="M 0.242188 0 L 270 0 L 270 273.980469 L 0.242188 273.980469 Z M 0.242188 0 " clip-rule="nonzero"/></clipPath><clipPath id="825ec5fb31"><path d="M 118 108 L 203 108 L 203 167 L 118 167 Z M 118 108 " clip-rule="nonzero"/></clipPath><clipPath id="f2d9633efe"><path d="M 181.027344 194.929688 L 99.300781 135.011719 L 131.476562 91.125 L 213.203125 151.039062 Z M 181.027344 194.929688 " clip-rule="nonzero"/></clipPath><clipPath id="ebc106f945"><path d="M 181.027344 194.929688 L 99.300781 135.011719 L 131.476562 91.125 L 213.203125 151.039062 Z M 181.027344 194.929688 " clip-rule="nonzero"/></clipPath><clipPath id="972e73d599"><path d="M 71 108 L 156 108 L 156 167 L 71 167 Z M 71 108 " clip-rule="nonzero"/></clipPath><clipPath id="a6431ba78b"><path d="M 134.242188 194.929688 L 52.519531 135.011719 L 84.695312 91.125 L 166.421875 151.039062 Z M 134.242188 194.929688 " clip-rule="nonzero"/></clipPath><clipPath id="cff1d515c0"><path d="M 134.242188 194.929688 L 52.519531 135.011719 L 84.695312 91.125 L 166.421875 151.039062 Z M 134.242188 194.929688 " clip-rule="nonzero"/></clipPath><clipPath id="508f3b70bb"><path d="M 26 108 L 111 108 L 111 167 L 26 167 Z M 26 108 " clip-rule="nonzero"/></clipPath><clipPath id="51c94c06bc"><path d="M 89.457031 194.929688 L 7.730469 135.011719 L 39.90625 91.125 L 121.632812 151.039062 Z M 89.457031 194.929688 " clip-rule="nonzero"/></clipPath><clipPath id="ee572746f0"><path d="M 89.457031 194.929688 L 7.730469 135.011719 L 39.90625 91.125 L 121.632812 151.039062 Z M 89.457031 194.929688 " clip-rule="nonzero"/></clipPath><clipPath id="e34ff8c915"><path d="M 167 108 L 252 108 L 252 167 L 167 167 Z M 167 108 " clip-rule="nonzero"/></clipPath><clipPath id="ed4623bd24"><path d="M 230.082031 194.929688 L 148.355469 135.011719 L 180.53125 91.125 L 262.257812 151.039062 Z M 230.082031 194.929688 " clip-rule="nonzero"/></clipPath><clipPath id="b7d7edb2ee"><path d="M 230.082031 194.929688 L 148.355469 135.011719 L 180.53125 91.125 L 262.257812 151.039062 Z M 230.082031 194.929688 " clip-rule="nonzero"/></clipPath><clipPath id="687a1857e1"><path d="M 103.101562 0 L 167.503906 0 L 167.503906 274.441406 L 103.101562 274.441406 Z M 103.101562 0 " clip-rule="nonzero"/></clipPath><clipPath id="5ae5aea9a1"><path d="M 135.304688 0 C 143.84375 0 152.035156 3.394531 158.074219 9.433594 C 164.113281 15.46875 167.503906 23.660156 167.503906 32.203125 L 167.503906 242.242188 C 167.503906 250.78125 164.113281 258.972656 158.074219 265.011719 C 152.035156 271.050781 143.84375 274.441406 135.304688 274.441406 C 126.761719 274.441406 118.574219 271.050781 112.535156 265.011719 C 106.496094 258.972656 103.101562 250.78125 103.101562 242.242188 L 103.101562 32.203125 C 103.101562 23.660156 106.496094 15.46875 112.535156 9.433594 C 118.574219 3.394531 126.761719 0 135.304688 0 Z M 135.304688 0 " clip-rule="nonzero"/></clipPath><clipPath id="0a0337912f"><path d="M 103.101562 0.015625 L 166.90625 0.015625 L 166.90625 273.980469 L 103.101562 273.980469 Z M 103.101562 0.015625 " clip-rule="nonzero"/></clipPath><clipPath id="6e58b7b9c0"><path d="M 135.296875 0.015625 C 143.835938 0.015625 152.023438 3.410156 158.0625 9.445312 C 164.101562 15.484375 167.492188 23.675781 167.492188 32.210938 L 167.492188 242.210938 C 167.492188 250.746094 164.101562 258.9375 158.0625 264.972656 C 152.023438 271.011719 143.835938 274.402344 135.296875 274.402344 C 126.757812 274.402344 118.570312 271.011719 112.53125 264.972656 C 106.492188 258.9375 103.101562 250.746094 103.101562 242.210938 L 103.101562 32.210938 C 103.101562 23.675781 106.492188 15.484375 112.53125 9.445312 C 118.570312 3.410156 126.757812 0.015625 135.296875 0.015625 Z M 135.296875 0.015625 " clip-rule="nonzero"/></clipPath><clipPath id="7d1e7a9be6"><path d="M 106 110 L 165 110 L 165 195 L 106 195 Z M 106 110 " clip-rule="nonzero"/></clipPath><clipPath id="f929b052cc"><path d="M 78.015625 173.234375 L 137.933594 91.507812 L 181.824219 123.683594 L 121.90625 205.410156 Z M 78.015625 173.234375 " clip-rule="nonzero"/></clipPath><clipPath id="0174858511"><path d="M 78.015625 173.234375 L 137.933594 91.507812 L 181.824219 123.683594 L 121.90625 205.410156 Z M 78.015625 173.234375 " clip-rule="nonzero"/></clipPath><clipPath id="63b50d00af"><path d="M 106 63 L 165 63 L 165 148 L 106 148 Z M 106 63 " clip-rule="nonzero"/></clipPath><clipPath id="ad6ec299f0"><path d="M 78.015625 126.449219 L 137.933594 44.726562 L 181.824219 76.902344 L 121.90625 158.628906 Z M 78.015625 126.449219 " clip-rule="nonzero"/></clipPath><clipPath id="8970ec4c1f"><path d="M 78.015625 126.449219 L 137.933594 44.726562 L 181.824219 76.902344 L 121.90625 158.628906 Z M 78.015625 126.449219 " clip-rule="nonzero"/></clipPath><clipPath id="2122757790"><path d="M 106 19 L 165 19 L 165 104 L 106 104 Z M 106 19 " clip-rule="nonzero"/></clipPath><clipPath id="758e41e3da"><path d="M 78.015625 81.664062 L 137.933594 -0.0625 L 181.824219 32.113281 L 121.90625 113.839844 Z M 78.015625 81.664062 " clip-rule="nonzero"/></clipPath><clipPath id="e56f6c9678"><path d="M 78.015625 81.664062 L 137.933594 -0.0625 L 181.824219 32.113281 L 121.90625 113.839844 Z M 78.015625 81.664062 " clip-rule="nonzero"/></clipPath><clipPath id="803c726cbf"><path d="M 106 159 L 165 159 L 165 244 L 106 244 Z M 106 159 " clip-rule="nonzero"/></clipPath><clipPath id="8f46eb2d70"><path d="M 78.015625 222.289062 L 137.933594 140.5625 L 181.824219 172.738281 L 121.90625 254.464844 Z M 78.015625 222.289062 " clip-rule="nonzero"/></clipPath><clipPath id="e7a480cb6c"><path d="M 78.015625 222.289062 L 137.933594 140.5625 L 181.824219 172.738281 L 121.90625 254.464844 Z M 78.015625 222.289062 " clip-rule="nonzero"/></clipPath></defs><g clip-path="url(#5cb324ca04)"><path fill="#997450" d="M 103.484375 105.496094 L 103.484375 34.574219 C 103.484375 24.652344 106.199219 16.589844 111.625 10.390625 C 117.050781 4.035156 124.800781 0.855469 134.878906 0.855469 C 144.957031 0.855469 152.707031 4.035156 158.132812 10.390625 C 163.710938 16.589844 166.503906 24.652344 166.503906 34.574219 L 166.503906 105.496094 L 236.5 105.496094 C 246.730469 105.496094 254.792969 108.285156 260.683594 113.867188 C 266.726562 119.292969 269.75 126.96875 269.75 136.886719 C 269.75 146.964844 266.730469 154.792969 260.683594 160.375 C 254.792969 165.957031 246.730469 168.746094 236.5 168.746094 L 166.503906 168.746094 L 166.503906 239.4375 C 166.503906 249.511719 163.714844 257.652344 158.132812 263.851562 C 152.550781 270.050781 144.800781 273.152344 134.878906 273.152344 C 124.957031 273.152344 117.207031 270.054688 111.625 263.851562 C 106.199219 257.652344 103.484375 249.511719 103.484375 239.4375 L 103.484375 168.746094 L 33.492188 168.746094 C 23.570312 168.746094 15.507812 165.722656 9.308594 159.675781 C 3.261719 153.476562 0.238281 145.878906 0.238281 136.886719 C 0.238281 126.96875 3.183594 119.292969 9.074219 113.867188 C 15.121094 108.285156 23.257812 105.496094 33.492188 105.496094 Z M 103.484375 105.496094 " fill-opacity="1" fill-rule="nonzero"/></g><g clip-path="url(#825ec5fb31)"><g clip-path="url(#f2d9633efe)"><g clip-path="url(#ebc106f945)"><path fill="#604933" d="M 118.421875 109.074219 C 150.054688 105.398438 157.046875 162.59375 202.464844 165.6875 C 150.546875 172.550781 151.570312 114.226562 118.421875 109.074219 Z M 118.421875 109.074219 " fill-opacity="1" fill-rule="nonzero"/></g></g></g><g clip-path="url(#972e73d599)"><g clip-path="url(#a6431ba78b)"><g clip-path="url(#cff1d515c0)"><path fill="#604933" d="M 71.640625 109.074219 C 103.273438 105.398438 110.261719 162.59375 155.679688 165.6875 C 103.765625 172.550781 104.789062 114.226562 71.640625 109.074219 Z M 71.640625 109.074219 " fill-opacity="1" fill-rule="nonzero"/></g></g></g><g clip-path="url(#508f3b70bb)"><g clip-path="url(#51c94c06bc)"><g clip-path="url(#ee572746f0)"><path fill="#604933" d="M 26.851562 109.074219 C 58.484375 105.398438 65.472656 162.59375 110.890625 165.6875 C 58.976562 172.550781 60 114.226562 26.851562 109.074219 Z M 26.851562 109.074219 " fill-opacity="1" fill-rule="nonzero"/></g></g></g><g clip-path="url(#e34ff8c915)"><g clip-path="url(#ed4623bd24)"><g clip-path="url(#b7d7edb2ee)"><path fill="#604933" d="M 167.476562 109.074219 C 199.109375 105.398438 206.097656 162.59375 251.519531 165.6875 C 199.601562 172.550781 200.625 114.226562 167.476562 109.074219 Z M 167.476562 109.074219 " fill-opacity="1" fill-rule="nonzero"/></g></g></g><g clip-path="url(#687a1857e1)"><g clip-path="url(#5ae5aea9a1)"><path fill="#997450" d="M 103.101562 0 L 167.503906 0 L 167.503906 274.441406 L 103.101562 274.441406 Z M 103.101562 0 " fill-opacity="1" fill-rule="nonzero"/></g></g><g clip-path="url(#0a0337912f)"><g clip-path="url(#6e58b7b9c0)"><path stroke-linecap="butt" transform="matrix(1.876587, 0, 0, 1.876587, 103.101717, 0.0173557)" fill="none" stroke-linejoin="miter" d="M 17.15623 -0.000922252 C 21.706545 -0.000922252 26.069519 1.807963 29.287629 5.023991 C 32.505738 8.242101 34.312542 12.607156 34.312542 17.15539 L 34.312542 129.060673 C 34.312542 133.608907 32.505738 137.973962 29.287629 141.18999 C 26.069519 144.4081 21.706545 146.214904 17.15623 146.214904 C 12.605915 146.214904 8.242941 144.4081 5.024831 141.18999 C 1.806722 137.973962 -0.0000823071 133.608907 -0.0000823071 129.060673 L -0.0000823071 17.15539 C -0.0000823071 12.607156 1.806722 8.242101 5.024831 5.023991 C 8.242941 1.807963 12.605915 -0.000922252 17.15623 -0.000922252 Z M 17.15623 -0.000922252 " stroke="#604933" stroke-width="0.797151" stroke-opacity="1" stroke-miterlimit="4"/></g></g><g clip-path="url(#7d1e7a9be6)"><g clip-path="url(#f929b052cc)"><g clip-path="url(#0174858511)"><path fill="#604933" d="M 163.871094 110.628906 C 167.546875 142.261719 110.351562 149.253906 107.257812 194.671875 C 100.394531 142.753906 158.71875 143.777344 163.871094 110.628906 Z M 163.871094 110.628906 " fill-opacity="1" fill-rule="nonzero"/></g></g></g><g clip-path="url(#63b50d00af)"><g clip-path="url(#ad6ec299f0)"><g clip-path="url(#8970ec4c1f)"><path fill="#604933" d="M 163.871094 63.847656 C 167.546875 95.480469 110.351562 102.46875 107.257812 147.886719 C 100.394531 95.972656 158.71875 96.996094 163.871094 63.847656 Z M 163.871094 63.847656 " fill-opacity="1" fill-rule="nonzero"/></g></g></g><g clip-path="url(#2122757790)"><g clip-path="url(#758e41e3da)"><g clip-path="url(#e56f6c9678)"><path fill="#604933" d="M 163.871094 19.058594 C 167.546875 50.691406 110.351562 57.679688 107.257812 103.097656 C 100.394531 51.183594 158.71875 52.207031 163.871094 19.058594 Z M 163.871094 19.058594 " fill-opacity="1" fill-rule="nonzero"/></g></g></g><g clip-path="url(#803c726cbf)"><g clip-path="url(#8f46eb2d70)"><g clip-path="url(#e7a480cb6c)"><path fill="#604933" d="M 163.871094 159.683594 C 167.546875 191.316406 110.351562 198.304688 107.257812 243.726562 C 100.394531 191.808594 158.71875 192.832031 163.871094 159.683594 Z M 163.871094 159.683594 " fill-opacity="1" fill-rule="nonzero"/></g></g></g></svg>