<svg xmlns="http://www.w3.org/2000/svg" xmlns:xlink="http://www.w3.org/1999/xlink" width="23" zoomAndPan="magnify" viewBox="0 0 17.25 14.25" height="19" preserveAspectRatio="xMidYMid meet" version="1.0"><defs><clipPath id="e3f821c9df"><path d="M 6 6 L 15.746094 6 L 15.746094 9 L 6 9 Z M 6 6 " clip-rule="nonzero"/></clipPath><clipPath id="95ee0f450c"><path d="M 6 11 L 15.746094 11 L 15.746094 12.910156 L 6 12.910156 Z M 6 11 " clip-rule="nonzero"/></clipPath><clipPath id="7a09cb0a87"><path d="M 9 2 L 15.746094 2 L 15.746094 4 L 9 4 Z M 9 2 " clip-rule="nonzero"/></clipPath><clipPath id="ec55868e53"><path d="M 0.320312 0.101562 L 8 0.101562 L 8 12.910156 L 0.320312 12.910156 Z M 0.320312 0.101562 " clip-rule="nonzero"/></clipPath><clipPath id="c537fb0c40"><path d="M 8.8125 7.027344 L 11.351562 7.027344 L 11.351562 8.335938 L 8.8125 8.335938 Z M 8.8125 7.027344 " clip-rule="nonzero"/></clipPath></defs><g clip-path="url(#e3f821c9df)"><path fill="#ffffff" d="M 15.035156 6.800781 L 7.082031 6.800781 C 6.648438 6.800781 6.296875 7.152344 6.296875 7.585938 C 6.296875 8.019531 6.648438 8.371094 7.082031 8.371094 L 15.035156 8.371094 C 15.46875 8.371094 15.820312 8.019531 15.820312 7.585938 C 15.820312 7.152344 15.46875 6.800781 15.035156 6.800781 Z M 15.035156 6.800781 " fill-opacity="1" fill-rule="nonzero"/></g><g clip-path="url(#95ee0f450c)"><path fill="#ffffff" d="M 15.035156 11.394531 L 7.082031 11.394531 C 6.648438 11.394531 6.296875 11.746094 6.296875 12.179688 C 6.296875 12.613281 6.648438 12.964844 7.082031 12.964844 L 15.035156 12.964844 C 15.46875 12.964844 15.820312 12.613281 15.820312 12.179688 C 15.820312 11.746094 15.46875 11.394531 15.035156 11.394531 Z M 15.035156 11.394531 " fill-opacity="1" fill-rule="nonzero"/></g><g clip-path="url(#7a09cb0a87)"><path fill="#ffffff" d="M 9.863281 3.777344 L 15.035156 3.777344 C 15.46875 3.777344 15.820312 3.425781 15.820312 2.992188 C 15.820312 2.558594 15.46875 2.207031 15.035156 2.207031 L 9.863281 2.207031 C 9.429688 2.207031 9.078125 2.558594 9.078125 2.992188 C 9.078125 3.425781 9.429688 3.777344 9.863281 3.777344 Z M 9.863281 3.777344 " fill-opacity="1" fill-rule="nonzero"/></g><g clip-path="url(#ec55868e53)"><path fill="#ffffff" d="M 7.296875 3.1875 L 4.511719 0.351562 C 4.367188 0.203125 4.167969 0.117188 3.960938 0.117188 C 3.75 0.117188 3.554688 0.203125 3.40625 0.351562 L 0.621094 3.1875 C 0.324219 3.492188 0.324219 3.984375 0.621094 4.285156 C 0.769531 4.4375 0.96875 4.523438 1.175781 4.523438 C 1.386719 4.523438 1.585938 4.4375 1.730469 4.289062 L 3.183594 2.8125 L 3.183594 12.1875 C 3.183594 12.617188 3.53125 12.964844 3.960938 12.964844 C 4.390625 12.964844 4.738281 12.617188 4.738281 12.1875 L 4.738281 2.8125 L 6.1875 4.289062 C 6.332031 4.4375 6.53125 4.523438 6.738281 4.523438 C 6.949219 4.523438 7.148438 4.4375 7.292969 4.289062 C 7.589844 3.984375 7.59375 3.492188 7.296875 3.1875 Z M 7.296875 3.1875 " fill-opacity="1" fill-rule="nonzero"/></g><g clip-path="url(#c537fb0c40)"><path fill="#ffffff" d="M 8.8125 7.027344 L 11.351562 7.027344 L 11.351562 8.335938 L 8.8125 8.335938 Z M 8.8125 7.027344 " fill-opacity="1" fill-rule="nonzero"/></g></svg>