<svg xmlns="http://www.w3.org/2000/svg" xmlns:xlink="http://www.w3.org/1999/xlink" width="22" zoomAndPan="magnify" viewBox="0 0 16.5 14.25" height="19" preserveAspectRatio="xMidYMid meet" version="1.0"><defs><clipPath id="9e133e66a6"><path d="M 6 5 L 15.773438 5 L 15.773438 7 L 6 7 Z M 6 5 " clip-rule="nonzero"/></clipPath><clipPath id="2636393b04"><path d="M 6 0.5 L 15.773438 0.5 L 15.773438 3 L 6 3 Z M 6 0.5 " clip-rule="nonzero"/></clipPath><clipPath id="c4063befc5"><path d="M 9 9 L 15.773438 9 L 15.773438 12 L 9 12 Z M 9 9 " clip-rule="nonzero"/></clipPath><clipPath id="fa725fd729"><path d="M 0.273438 0.5 L 8 0.5 L 8 13.324219 L 0.273438 13.324219 Z M 0.273438 0.5 " clip-rule="nonzero"/></clipPath><clipPath id="cbdf345cc0"><path d="M 11.871094 9.851562 L 14.410156 9.851562 L 14.410156 11.15625 L 11.871094 11.15625 Z M 11.871094 9.851562 " clip-rule="nonzero"/></clipPath></defs><g clip-path="url(#9e133e66a6)"><path fill="#ffffff" d="M 14.988281 6.625 L 7.035156 6.625 C 6.601562 6.625 6.25 6.273438 6.25 5.839844 C 6.25 5.40625 6.601562 5.054688 7.035156 5.054688 L 14.988281 5.054688 C 15.417969 5.054688 15.773438 5.40625 15.773438 5.839844 C 15.773438 6.273438 15.417969 6.625 14.988281 6.625 Z M 14.988281 6.625 " fill-opacity="1" fill-rule="nonzero"/></g><g clip-path="url(#2636393b04)"><path fill="#ffffff" d="M 14.988281 2.03125 L 7.035156 2.03125 C 6.601562 2.03125 6.25 1.679688 6.25 1.246094 C 6.25 0.816406 6.601562 0.460938 7.035156 0.460938 L 14.988281 0.460938 C 15.417969 0.460938 15.773438 0.816406 15.773438 1.246094 C 15.773438 1.679688 15.417969 2.03125 14.988281 2.03125 Z M 14.988281 2.03125 " fill-opacity="1" fill-rule="nonzero"/></g><g clip-path="url(#c4063befc5)"><path fill="#ffffff" d="M 9.816406 9.648438 L 14.988281 9.648438 C 15.417969 9.648438 15.773438 10 15.773438 10.433594 C 15.773438 10.867188 15.417969 11.21875 14.988281 11.21875 L 9.816406 11.21875 C 9.382812 11.21875 9.03125 10.867188 9.03125 10.433594 C 9.03125 10 9.382812 9.648438 9.816406 9.648438 Z M 9.816406 9.648438 " fill-opacity="1" fill-rule="nonzero"/></g><g clip-path="url(#fa725fd729)"><path fill="#ffffff" d="M 7.25 10.238281 L 4.464844 13.074219 C 4.320312 13.222656 4.121094 13.308594 3.914062 13.308594 C 3.703125 13.308594 3.507812 13.226562 3.359375 13.074219 L 0.574219 10.238281 C 0.277344 9.933594 0.277344 9.441406 0.574219 9.140625 C 0.722656 8.988281 0.921875 8.90625 1.132812 8.90625 C 1.339844 8.90625 1.539062 8.988281 1.683594 9.136719 L 3.136719 10.617188 L 3.136719 1.238281 C 3.136719 0.8125 3.484375 0.460938 3.914062 0.460938 C 4.34375 0.460938 4.691406 0.8125 4.691406 1.238281 L 4.691406 10.613281 L 6.140625 9.136719 C 6.285156 8.988281 6.484375 8.90625 6.691406 8.90625 C 6.902344 8.90625 7.097656 8.988281 7.246094 9.136719 C 7.542969 9.441406 7.546875 9.933594 7.25 10.238281 Z M 7.25 10.238281 " fill-opacity="1" fill-rule="nonzero"/></g><g clip-path="url(#cbdf345cc0)"><path fill="#ffffff" d="M 14.410156 11.15625 L 11.871094 11.15625 L 11.871094 9.851562 L 14.410156 9.851562 Z M 14.410156 11.15625 " fill-opacity="1" fill-rule="nonzero"/></g></svg>