<svg xmlns="http://www.w3.org/2000/svg" xmlns:xlink="http://www.w3.org/1999/xlink" width="101" zoomAndPan="magnify" viewBox="0 0 75.75 75.749998" height="101" preserveAspectRatio="xMidYMid meet" version="1.0"><defs><clipPath id="68c73d6292"><path d="M 0.203125 0.554688 L 74.988281 0.554688 L 74.988281 75.339844 L 0.203125 75.339844 Z M 0.203125 0.554688 " clip-rule="nonzero"/></clipPath><clipPath id="34d71c7f5e"><path d="M 37.597656 0.554688 C 16.945312 0.554688 0.203125 17.296875 0.203125 37.945312 C 0.203125 58.597656 16.945312 75.339844 37.597656 75.339844 C 58.246094 75.339844 74.988281 58.597656 74.988281 37.945312 C 74.988281 17.296875 58.246094 0.554688 37.597656 0.554688 Z M 37.597656 0.554688 " clip-rule="nonzero"/></clipPath><clipPath id="c412966e72"><path d="M 0.203125 0.554688 L 74.957031 0.554688 L 74.957031 75.308594 L 0.203125 75.308594 Z M 0.203125 0.554688 " clip-rule="nonzero"/></clipPath><clipPath id="f805780030"><path d="M 37.59375 0.554688 C 16.945312 0.554688 0.203125 17.296875 0.203125 37.945312 C 0.203125 58.59375 16.945312 75.332031 37.59375 75.332031 C 58.242188 75.332031 74.980469 58.59375 74.980469 37.945312 C 74.980469 17.296875 58.242188 0.554688 37.59375 0.554688 Z M 37.59375 0.554688 " clip-rule="nonzero"/></clipPath><clipPath id="c74d3ca7f3"><path d="M 5.742188 7.785156 L 69.28125 7.785156 L 69.28125 61.609375 L 5.742188 61.609375 Z M 5.742188 7.785156 " clip-rule="nonzero"/></clipPath></defs><g clip-path="url(#68c73d6292)"><g clip-path="url(#34d71c7f5e)"><path fill="#fff8f0" d="M 0.203125 0.554688 L 74.988281 0.554688 L 74.988281 75.339844 L 0.203125 75.339844 Z M 0.203125 0.554688 " fill-opacity="1" fill-rule="nonzero"/></g></g><g clip-path="url(#c412966e72)"><g clip-path="url(#f805780030)"><path stroke-linecap="butt" transform="matrix(0.747533, 0, 0, 0.747533, 0.204466, 0.555894)" fill="none" stroke-linejoin="miter" d="M 50.016912 -0.00161405 C 22.394798 -0.00161405 -0.00179324 22.394977 -0.00179324 50.017091 C -0.00179324 77.639205 22.394798 100.030571 50.016912 100.030571 C 77.639026 100.030571 100.030392 77.639205 100.030392 50.017091 C 100.030392 22.394977 77.639026 -0.00161405 50.016912 -0.00161405 Z M 50.016912 -0.00161405 " stroke="#997450" stroke-width="8" stroke-opacity="1" stroke-miterlimit="4"/></g></g><g clip-path="url(#c74d3ca7f3)"><path fill="#997450" d="M 31.222656 61.933594 L 31.222656 42.824219 L 43.964844 42.824219 L 43.964844 61.933594 L 59.890625 61.933594 L 59.890625 36.453125 L 69.445312 36.453125 L 37.59375 7.785156 L 5.742188 36.453125 L 15.296875 36.453125 L 15.296875 61.933594 Z M 31.222656 61.933594 " fill-opacity="1" fill-rule="nonzero"/></g></svg>