<svg xmlns="http://www.w3.org/2000/svg" xmlns:xlink="http://www.w3.org/1999/xlink" width="485" zoomAndPan="magnify" viewBox="0 0 363.75 116.249996" height="155" preserveAspectRatio="xMidYMid meet" version="1.0"><defs><g/><clipPath id="8a7817a675"><path d="M 159.199219 53.40625 L 250.433594 53.40625 L 250.433594 88.875 L 159.199219 88.875 Z M 159.199219 53.40625 " clip-rule="nonzero"/></clipPath><clipPath id="eebad6564a"><path d="M 159.207031 53.40625 L 250.414062 53.40625 L 250.414062 88.863281 L 159.207031 88.863281 Z M 159.207031 53.40625 " clip-rule="nonzero"/></clipPath><clipPath id="16b1a86941"><path d="M 233.753906 53.40625 L 269.207031 53.40625 L 269.207031 88.863281 L 233.753906 88.863281 Z M 233.753906 53.40625 " clip-rule="nonzero"/></clipPath><clipPath id="1a221b1975"><path d="M 238.292969 57.972656 L 264.292969 57.972656 L 264.292969 83.972656 L 238.292969 83.972656 Z M 238.292969 57.972656 " clip-rule="nonzero"/></clipPath><clipPath id="3a5b2e1c18"><path d="M 239.710938 59.417969 L 263.351562 59.417969 L 263.351562 83 L 239.710938 83 Z M 239.710938 59.417969 " clip-rule="nonzero"/></clipPath><clipPath id="89a5d14c68"><path d="M 169.464844 56.207031 L 193.464844 56.207031 L 193.464844 86.148438 L 169.464844 86.148438 Z M 169.464844 56.207031 " clip-rule="nonzero"/></clipPath><clipPath id="fa9325576b"><path d="M 191 59 L 207 59 L 207 83 L 191 83 Z M 191 59 " clip-rule="nonzero"/></clipPath><clipPath id="ec087e26a7"><path d="M 191.074219 82.363281 L 205.664062 58.964844 L 207.003906 59.796875 L 192.410156 83.195312 Z M 191.074219 82.363281 " clip-rule="nonzero"/></clipPath><clipPath id="859cfe1609"><path d="M 191.074219 82.363281 L 205.664062 58.964844 L 207.003906 59.796875 L 192.410156 83.195312 Z M 191.074219 82.363281 " clip-rule="nonzero"/></clipPath><clipPath id="95950f3694"><path d="M 191.074219 82.363281 L 205.664062 58.964844 L 207.003906 59.796875 L 192.410156 83.195312 Z M 191.074219 82.363281 " clip-rule="nonzero"/></clipPath><clipPath id="af5894189f"><path d="M 257 7 L 281 7 L 281 53 L 257 53 Z M 257 7 " clip-rule="nonzero"/></clipPath><clipPath id="f209113d20"><path d="M 242.753906 43.964844 L 265.800781 0 L 288.828125 12.074219 L 265.78125 56.035156 Z M 242.753906 43.964844 " clip-rule="nonzero"/></clipPath><clipPath id="8a22104225"><path d="M 242.753906 43.964844 L 265.800781 0 L 288.828125 12.074219 L 265.78125 56.035156 Z M 242.753906 43.964844 " clip-rule="nonzero"/></clipPath><clipPath id="ab1a65cb10"><path d="M 254 7 L 273 7 L 273 46 L 254 46 Z M 254 7 " clip-rule="nonzero"/></clipPath><clipPath id="847b0d0412"><path d="M 242.753906 38.789062 L 260.203125 1.71875 L 280.164062 11.113281 L 262.710938 48.183594 Z M 242.753906 38.789062 " clip-rule="nonzero"/></clipPath><clipPath id="f7f88aee73"><path d="M 242.753906 38.789062 L 260.203125 1.71875 L 280.164062 11.113281 L 262.710938 48.183594 Z M 242.753906 38.789062 " clip-rule="nonzero"/></clipPath><clipPath id="cabe643a12"><path d="M 261 20 L 278 20 L 278 54 L 261 54 Z M 261 20 " clip-rule="nonzero"/></clipPath><clipPath id="23e1305094"><path d="M 250.371094 47.433594 L 266.726562 15.085938 L 284.304688 23.976562 L 267.949219 56.320312 Z M 250.371094 47.433594 " clip-rule="nonzero"/></clipPath><clipPath id="6f7b08f0fc"><path d="M 250.371094 47.433594 L 266.726562 15.085938 L 284.304688 23.976562 L 267.949219 56.320312 Z M 250.371094 47.433594 " clip-rule="nonzero"/></clipPath><clipPath id="951519945c"><path d="M 206 60 L 222 60 L 222 84 L 206 84 Z M 206 60 " clip-rule="nonzero"/></clipPath><clipPath id="6d081085fd"><path d="M 205.578125 83.214844 L 220.167969 59.8125 L 221.507812 60.648438 L 206.914062 84.046875 Z M 205.578125 83.214844 " clip-rule="nonzero"/></clipPath><clipPath id="6aa6acdb11"><path d="M 205.578125 83.214844 L 220.167969 59.8125 L 221.507812 60.648438 L 206.914062 84.046875 Z M 205.578125 83.214844 " clip-rule="nonzero"/></clipPath><clipPath id="7d3953da8b"><path d="M 205.578125 83.214844 L 220.167969 59.8125 L 221.507812 60.648438 L 206.914062 84.046875 Z M 205.578125 83.214844 " clip-rule="nonzero"/></clipPath><clipPath id="d16a13cf65"><path d="M 220 60 L 236 60 L 236 84 L 220 84 Z M 220 60 " clip-rule="nonzero"/></clipPath><clipPath id="177937cda4"><path d="M 219.644531 82.878906 L 234.234375 59.480469 L 235.574219 60.3125 L 220.980469 83.710938 Z M 219.644531 82.878906 " clip-rule="nonzero"/></clipPath><clipPath id="76b8d715ac"><path d="M 219.644531 82.878906 L 234.234375 59.480469 L 235.574219 60.3125 L 220.980469 83.710938 Z M 219.644531 82.878906 " clip-rule="nonzero"/></clipPath><clipPath id="7446ba62f3"><path d="M 219.644531 82.878906 L 234.234375 59.480469 L 235.574219 60.3125 L 220.980469 83.710938 Z M 219.644531 82.878906 " clip-rule="nonzero"/></clipPath><clipPath id="531d956845"><path d="M 167 60 L 183 60 L 183 84 L 167 84 Z M 167 60 " clip-rule="nonzero"/></clipPath><clipPath id="3a2c34c8b9"><path d="M 167.179688 83.347656 L 181.769531 59.949219 L 183.109375 60.78125 L 168.515625 84.183594 Z M 167.179688 83.347656 " clip-rule="nonzero"/></clipPath><clipPath id="f02cf5f899"><path d="M 167.179688 83.347656 L 181.769531 59.949219 L 183.109375 60.78125 L 168.515625 84.183594 Z M 167.179688 83.347656 " clip-rule="nonzero"/></clipPath><clipPath id="50fa1c7076"><path d="M 167.179688 83.347656 L 181.769531 59.949219 L 183.109375 60.78125 L 168.515625 84.183594 Z M 167.179688 83.347656 " clip-rule="nonzero"/></clipPath><clipPath id="d9607e7946"><path d="M 160 59 L 169 59 L 169 72 L 160 72 Z M 160 59 " clip-rule="nonzero"/></clipPath><clipPath id="132a65239e"><path d="M 160.34375 70.589844 L 167.847656 58.558594 L 169.183594 59.390625 L 161.679688 71.425781 Z M 160.34375 70.589844 " clip-rule="nonzero"/></clipPath><clipPath id="32941fc8a9"><path d="M 160.128906 70.929688 L 167.636719 58.894531 L 168.972656 59.730469 L 161.46875 71.765625 Z M 160.128906 70.929688 " clip-rule="nonzero"/></clipPath><clipPath id="418cbc7420"><path d="M 152.109375 83.792969 L 167.535156 59.058594 L 168.871094 59.890625 L 153.445312 84.628906 Z M 152.109375 83.792969 " clip-rule="nonzero"/></clipPath></defs><g clip-path="url(#8a7817a675)"><path fill="#997450" d="M 159.199219 53.40625 L 250.433594 53.40625 L 250.433594 88.875 L 159.199219 88.875 Z M 159.199219 53.40625 " fill-opacity="1" fill-rule="nonzero"/></g><g clip-path="url(#eebad6564a)"><path stroke-linecap="butt" transform="matrix(0.78791, 0, 0, 0.78791, 159.206937, 53.407831)" fill="none" stroke-linejoin="miter" d="M 0.00011934 -0.00200669 L 115.758281 -0.00200669 L 115.758281 44.999357 L 0.00011934 44.999357 Z M 0.00011934 -0.00200669 " stroke="#000000" stroke-width="9.457833" stroke-opacity="1" stroke-miterlimit="4"/></g><g clip-path="url(#16b1a86941)"><path fill="#000000" d="M 269.171875 71.117188 C 269.171875 71.699219 269.144531 72.277344 269.085938 72.851562 C 269.027344 73.429688 268.945312 74.003906 268.832031 74.574219 C 268.71875 75.140625 268.578125 75.703125 268.410156 76.257812 C 268.238281 76.8125 268.046875 77.359375 267.824219 77.894531 C 267.601562 78.429688 267.351562 78.953125 267.078125 79.464844 C 266.804688 79.976562 266.507812 80.472656 266.1875 80.957031 C 265.863281 81.4375 265.519531 81.902344 265.152344 82.351562 C 264.785156 82.800781 264.394531 83.230469 263.984375 83.640625 C 263.574219 84.050781 263.144531 84.4375 262.695312 84.808594 C 262.246094 85.175781 261.78125 85.519531 261.300781 85.84375 C 260.816406 86.164062 260.320312 86.460938 259.808594 86.734375 C 259.296875 87.007812 258.773438 87.257812 258.238281 87.480469 C 257.703125 87.699219 257.15625 87.894531 256.601562 88.0625 C 256.046875 88.234375 255.484375 88.375 254.917969 88.488281 C 254.347656 88.601562 253.773438 88.683594 253.199219 88.742188 C 252.621094 88.796875 252.042969 88.828125 251.460938 88.828125 C 250.882812 88.828125 250.304688 88.796875 249.726562 88.742188 C 249.148438 88.683594 248.574219 88.601562 248.007812 88.488281 C 247.4375 88.375 246.875 88.234375 246.320312 88.0625 C 245.765625 87.894531 245.21875 87.699219 244.683594 87.480469 C 244.148438 87.257812 243.625 87.007812 243.113281 86.734375 C 242.601562 86.460938 242.105469 86.164062 241.621094 85.84375 C 241.140625 85.519531 240.675781 85.175781 240.226562 84.808594 C 239.777344 84.4375 239.347656 84.050781 238.9375 83.640625 C 238.527344 83.230469 238.140625 82.800781 237.773438 82.351562 C 237.402344 81.902344 237.058594 81.4375 236.738281 80.957031 C 236.414062 80.472656 236.117188 79.976562 235.84375 79.464844 C 235.570312 78.953125 235.320312 78.429688 235.101562 77.894531 C 234.878906 77.359375 234.683594 76.8125 234.515625 76.257812 C 234.347656 75.703125 234.207031 75.140625 234.09375 74.574219 C 233.980469 74.003906 233.894531 73.429688 233.835938 72.851562 C 233.78125 72.277344 233.753906 71.699219 233.753906 71.117188 C 233.753906 70.539062 233.78125 69.957031 233.835938 69.382812 C 233.894531 68.804688 233.980469 68.230469 234.09375 67.664062 C 234.207031 67.09375 234.347656 66.53125 234.515625 65.976562 C 234.683594 65.421875 234.878906 64.875 235.101562 64.339844 C 235.320312 63.804688 235.570312 63.28125 235.84375 62.769531 C 236.117188 62.257812 236.414062 61.761719 236.738281 61.277344 C 237.058594 60.796875 237.402344 60.332031 237.773438 59.882812 C 238.140625 59.433594 238.527344 59.003906 238.9375 58.59375 C 239.347656 58.183594 239.777344 57.796875 240.226562 57.425781 C 240.675781 57.058594 241.140625 56.714844 241.621094 56.390625 C 242.105469 56.070312 242.601562 55.773438 243.113281 55.5 C 243.625 55.226562 244.148438 54.976562 244.683594 54.757812 C 245.21875 54.535156 245.765625 54.339844 246.320312 54.171875 C 246.875 54.003906 247.4375 53.859375 248.007812 53.75 C 248.574219 53.636719 249.148438 53.550781 249.726562 53.492188 C 250.304688 53.4375 250.882812 53.40625 251.460938 53.40625 C 252.042969 53.40625 252.621094 53.4375 253.199219 53.492188 C 253.773438 53.550781 254.347656 53.636719 254.917969 53.75 C 255.484375 53.859375 256.046875 54.003906 256.601562 54.171875 C 257.15625 54.339844 257.703125 54.535156 258.238281 54.757812 C 258.773438 54.976562 259.296875 55.226562 259.808594 55.5 C 260.320312 55.773438 260.816406 56.070312 261.300781 56.390625 C 261.78125 56.714844 262.246094 57.058594 262.695312 57.425781 C 263.144531 57.796875 263.574219 58.183594 263.984375 58.59375 C 264.394531 59.003906 264.785156 59.433594 265.152344 59.882812 C 265.519531 60.332031 265.863281 60.796875 266.1875 61.277344 C 266.507812 61.761719 266.804688 62.257812 267.078125 62.769531 C 267.351562 63.28125 267.601562 63.804688 267.824219 64.339844 C 268.046875 64.875 268.238281 65.421875 268.410156 65.976562 C 268.578125 66.53125 268.71875 67.09375 268.832031 67.664062 C 268.945312 68.230469 269.027344 68.804688 269.085938 69.382812 C 269.144531 69.957031 269.171875 70.539062 269.171875 71.117188 Z M 269.171875 71.117188 " fill-opacity="1" fill-rule="nonzero"/></g><g clip-path="url(#1a221b1975)"><path fill="#a81717" d="M 251.460938 57.972656 C 244.183594 57.972656 238.292969 63.863281 238.292969 71.136719 C 238.292969 78.414062 244.183594 84.304688 251.460938 84.304688 C 258.734375 84.304688 264.625 78.414062 264.625 71.136719 C 264.625 63.863281 258.734375 57.972656 251.460938 57.972656 Z M 251.460938 81.671875 C 245.640625 81.671875 240.925781 76.957031 240.925781 71.136719 C 240.925781 65.320312 245.640625 60.605469 251.460938 60.605469 C 257.277344 60.605469 261.992188 65.320312 261.992188 71.136719 C 261.992188 76.957031 257.277344 81.671875 251.460938 81.671875 Z M 251.460938 81.671875 " fill-opacity="1" fill-rule="nonzero"/></g><g clip-path="url(#3a5b2e1c18)"><path fill="#660707" d="M 263.203125 71.160156 C 263.203125 71.933594 263.128906 72.695312 262.976562 73.453125 C 262.828125 74.210938 262.605469 74.945312 262.308594 75.65625 C 262.011719 76.367188 261.652344 77.046875 261.222656 77.6875 C 260.792969 78.328125 260.308594 78.921875 259.761719 79.46875 C 259.21875 80.011719 258.625 80.5 257.984375 80.925781 C 257.339844 81.355469 256.664062 81.71875 255.953125 82.011719 C 255.238281 82.308594 254.503906 82.53125 253.75 82.679688 C 252.992188 82.832031 252.230469 82.90625 251.457031 82.90625 C 250.6875 82.90625 249.921875 82.832031 249.167969 82.679688 C 248.410156 82.53125 247.675781 82.308594 246.964844 82.011719 C 246.25 81.71875 245.574219 81.355469 244.933594 80.925781 C 244.292969 80.5 243.699219 80.011719 243.152344 79.46875 C 242.609375 78.921875 242.121094 78.328125 241.691406 77.6875 C 241.265625 77.046875 240.902344 76.367188 240.605469 75.65625 C 240.3125 74.945312 240.089844 74.210938 239.9375 73.453125 C 239.789062 72.695312 239.710938 71.933594 239.710938 71.160156 C 239.710938 70.390625 239.789062 69.628906 239.9375 68.871094 C 240.089844 68.113281 240.3125 67.378906 240.605469 66.667969 C 240.902344 65.957031 241.265625 65.277344 241.691406 64.636719 C 242.121094 63.996094 242.609375 63.402344 243.152344 62.855469 C 243.699219 62.3125 244.292969 61.824219 244.933594 61.398438 C 245.574219 60.96875 246.25 60.605469 246.964844 60.3125 C 247.675781 60.015625 248.410156 59.792969 249.167969 59.644531 C 249.921875 59.492188 250.6875 59.417969 251.457031 59.417969 C 252.230469 59.417969 252.992188 59.492188 253.75 59.644531 C 254.503906 59.792969 255.238281 60.015625 255.953125 60.3125 C 256.664062 60.605469 257.339844 60.96875 257.984375 61.398438 C 258.625 61.824219 259.21875 62.3125 259.761719 62.855469 C 260.308594 63.402344 260.792969 63.996094 261.222656 64.636719 C 261.652344 65.277344 262.011719 65.957031 262.308594 66.667969 C 262.605469 67.378906 262.828125 68.113281 262.976562 68.871094 C 263.128906 69.628906 263.203125 70.390625 263.203125 71.160156 Z M 263.203125 71.160156 " fill-opacity="1" fill-rule="nonzero"/></g><g clip-path="url(#89a5d14c68)"><path fill="#000000" d="M 169.464844 94.78125 L 169.464844 86.796875 C 173.890625 86.796875 177.882812 85.019531 180.789062 82.109375 C 183.695312 79.191406 185.480469 75.210938 185.480469 70.789062 C 185.480469 66.355469 183.695312 62.363281 180.789062 59.457031 C 177.882812 56.550781 173.890625 54.769531 169.464844 54.769531 L 169.464844 46.777344 C 182.714844 46.777344 193.464844 57.535156 193.464844 70.789062 C 193.464844 84.039062 182.714844 94.78125 169.464844 94.78125 " fill-opacity="1" fill-rule="nonzero"/></g><g clip-path="url(#fa9325576b)"><g clip-path="url(#ec087e26a7)"><g clip-path="url(#859cfe1609)"><g clip-path="url(#95950f3694)"><path fill="#000000" d="M 205.046875 59.953125 L 191.691406 81.375 C 191.425781 81.796875 191.511719 82.328125 191.882812 82.554688 C 192.25 82.785156 192.765625 82.628906 193.027344 82.207031 L 206.386719 60.785156 C 206.648438 60.363281 206.5625 59.835938 206.195312 59.605469 C 205.824219 59.375 205.3125 59.53125 205.046875 59.953125 Z M 205.046875 59.953125 " fill-opacity="1" fill-rule="nonzero"/></g></g></g></g><g clip-path="url(#af5894189f)"><g clip-path="url(#f209113d20)"><g clip-path="url(#8a22104225)"><path fill="#000000" d="M 279.636719 7.488281 C 283.714844 22.492188 256.613281 30.03125 258.429688 52.179688 C 251.335938 27.621094 279.5625 23.867188 279.636719 7.488281 Z M 279.636719 7.488281 " fill-opacity="1" fill-rule="nonzero"/></g></g></g><g clip-path="url(#ab1a65cb10)"><g clip-path="url(#847b0d0412)"><g clip-path="url(#f7f88aee73)"><path fill="#000000" d="M 271.894531 7.382812 C 275.792969 19.621094 253.695312 26.800781 255.980469 45.015625 C 249.253906 24.996094 272.417969 20.902344 271.894531 7.382812 Z M 271.894531 7.382812 " fill-opacity="1" fill-rule="nonzero"/></g></g></g><g clip-path="url(#cabe643a12)"><g clip-path="url(#23e1305094)"><g clip-path="url(#6f7b08f0fc)"><path fill="#000000" d="M 277.203125 20.09375 C 280.378906 31.128906 260.449219 36.992188 262.027344 53.328125 C 256.523438 35.265625 277.328125 32.1875 277.203125 20.09375 Z M 277.203125 20.09375 " fill-opacity="1" fill-rule="nonzero"/></g></g></g><g clip-path="url(#951519945c)"><g clip-path="url(#6d081085fd)"><g clip-path="url(#6aa6acdb11)"><g clip-path="url(#7d3953da8b)"><path fill="#000000" d="M 219.550781 60.804688 L 206.195312 82.226562 C 205.929688 82.648438 206.015625 83.175781 206.386719 83.40625 C 206.753906 83.636719 207.269531 83.480469 207.53125 83.058594 L 220.890625 61.636719 C 221.152344 61.214844 221.066406 60.683594 220.699219 60.453125 C 220.328125 60.222656 219.816406 60.378906 219.550781 60.804688 Z M 219.550781 60.804688 " fill-opacity="1" fill-rule="nonzero"/></g></g></g></g><g clip-path="url(#d16a13cf65)"><g clip-path="url(#177937cda4)"><g clip-path="url(#76b8d715ac)"><g clip-path="url(#7446ba62f3)"><path fill="#000000" d="M 233.621094 60.46875 L 220.261719 81.890625 C 219.996094 82.3125 220.082031 82.84375 220.453125 83.070312 C 220.820312 83.300781 221.335938 83.144531 221.597656 82.722656 L 234.957031 61.300781 C 235.21875 60.878906 235.132812 60.351562 234.765625 60.121094 C 234.394531 59.890625 233.882812 60.046875 233.621094 60.46875 Z M 233.621094 60.46875 " fill-opacity="1" fill-rule="nonzero"/></g></g></g></g><g clip-path="url(#531d956845)"><g clip-path="url(#3a2c34c8b9)"><g clip-path="url(#f02cf5f899)"><g clip-path="url(#50fa1c7076)"><path fill="#000000" d="M 181.15625 60.9375 L 167.796875 82.359375 C 167.53125 82.78125 167.617188 83.3125 167.988281 83.542969 C 168.355469 83.769531 168.871094 83.617188 169.132812 83.191406 L 182.492188 61.769531 C 182.753906 61.347656 182.667969 60.820312 182.300781 60.589844 C 181.929688 60.359375 181.417969 60.515625 181.15625 60.9375 Z M 181.15625 60.9375 " fill-opacity="1" fill-rule="nonzero"/></g></g></g></g><g clip-path="url(#d9607e7946)"><g clip-path="url(#132a65239e)"><g clip-path="url(#32941fc8a9)"><g clip-path="url(#418cbc7420)"><path fill="#000000" d="M 166.847656 60.160156 L 152.796875 82.691406 C 152.519531 83.132812 152.59375 83.679688 152.964844 83.910156 C 153.332031 84.140625 153.859375 83.96875 154.132812 83.523438 L 168.183594 60.996094 C 168.460938 60.550781 168.386719 60.003906 168.015625 59.773438 C 167.648438 59.542969 167.125 59.714844 166.847656 60.160156 Z M 166.847656 60.160156 " fill-opacity="1" fill-rule="nonzero"/></g></g></g></g><g fill="#000000" fill-opacity="1"><g transform="translate(269.173926, 87.045689)"><g><path d="M 3.578125 0 L 9.246094 0 L 9.246094 -13.054688 L 19.839844 -13.054688 L 29.550781 0 L 36.703125 0 L 26.066406 -13.472656 C 30.851562 -14.773438 33.21875 -18.769531 33.21875 -22.765625 C 33.21875 -27.644531 29.734375 -32.523438 22.671875 -32.523438 L 3.578125 -32.523438 Z M 9.246094 -27.597656 L 21.652344 -27.597656 C 25.414062 -27.597656 27.320312 -25.183594 27.320312 -22.765625 C 27.320312 -20.351562 25.414062 -17.980469 21.652344 -17.980469 L 9.246094 -17.980469 Z M 9.246094 -27.597656 "/></g></g></g><g fill="#000000" fill-opacity="1"><g transform="translate(307.410081, 87.045689)"><g><path d="M 39.445312 -16.261719 C 39.445312 -27.785156 29.550781 -33.40625 21.046875 -33.40625 C 12.589844 -33.40625 2.695312 -27.785156 2.695312 -16.261719 C 2.695312 -4.738281 12.589844 0.882812 21.046875 0.882812 C 29.550781 0.882812 39.445312 -4.738281 39.445312 -16.261719 Z M 33.636719 -16.261719 C 33.636719 -8.363281 26.855469 -4.460938 21.046875 -4.460938 C 15.285156 -4.460938 8.503906 -8.363281 8.503906 -16.261719 C 8.503906 -24.160156 15.285156 -28.0625 21.046875 -28.0625 C 26.855469 -28.0625 33.636719 -24.160156 33.636719 -16.261719 Z M 33.636719 -16.261719 "/></g></g></g><g fill="#000000" fill-opacity="1"><g transform="translate(11.706078, 87.553241)"><g><path d="M 3.746094 0 L 9.675781 0 L 9.675781 -14.492188 L 31.800781 -14.492188 L 31.800781 0 L 37.78125 0 L 37.78125 -34.039062 L 31.800781 -34.039062 L 31.800781 -19.597656 L 9.675781 -19.597656 L 9.675781 -34.039062 L 3.746094 -34.039062 Z M 3.746094 0 "/></g></g></g><g fill="#000000" fill-opacity="1"><g transform="translate(53.183037, 87.553241)"><g><path d="M 3.257812 -13.46875 C 3.257812 -3.695312 11.621094 1.214844 19.984375 1.214844 C 28.347656 1.214844 36.714844 -3.695312 36.714844 -13.46875 L 36.714844 -34.039062 L 30.78125 -34.039062 L 30.78125 -13.46875 C 30.78125 -7.539062 25.382812 -4.621094 19.984375 -4.621094 C 14.589844 -4.621094 9.191406 -7.539062 9.191406 -13.46875 L 9.191406 -34.039062 L 3.257812 -34.039062 Z M 3.257812 -13.46875 "/></g></g></g><g fill="#000000" fill-opacity="1"><g transform="translate(93.152628, 87.553241)"><g><path d="M 3.746094 0 L 9.675781 0 L 9.675781 -23.730469 L 23.535156 0 L 25.722656 0 L 39.582031 -23.730469 L 39.582031 0 L 45.5625 0 L 45.5625 -34.039062 L 39.582031 -34.039062 L 24.652344 -8.363281 L 9.675781 -34.039062 L 3.746094 -34.039062 Z M 3.746094 0 "/></g></g></g><g fill="#000000" fill-opacity="1"><g transform="translate(142.409556, 87.553241)"><g><path d="M 3.746094 0 L 9.675781 0 L 9.675781 -34.039062 L 3.746094 -34.039062 Z M 3.746094 0 "/></g></g></g></svg>