<svg xmlns="http://www.w3.org/2000/svg" xmlns:xlink="http://www.w3.org/1999/xlink" width="101" zoomAndPan="magnify" viewBox="0 0 75.75 75.749998" height="101" preserveAspectRatio="xMidYMid meet" version="1.0"><defs><filter x="0%" y="0%" width="100%" height="100%" id="753092b9f1"><feColorMatrix values="0 0 0 0 1 0 0 0 0 1 0 0 0 0 1 0 0 0 1 0" color-interpolation-filters="sRGB"/></filter><clipPath id="d451142361"><path d="M 0.597656 0.460938 L 75.382812 0.460938 L 75.382812 75.242188 L 0.597656 75.242188 Z M 0.597656 0.460938 " clip-rule="nonzero"/></clipPath><clipPath id="da6e08e0df"><path d="M 37.988281 0.460938 C 17.339844 0.460938 0.597656 17.199219 0.597656 37.851562 C 0.597656 58.5 17.339844 75.242188 37.988281 75.242188 C 58.640625 75.242188 75.382812 58.5 75.382812 37.851562 C 75.382812 17.199219 58.640625 0.460938 37.988281 0.460938 Z M 37.988281 0.460938 " clip-rule="nonzero"/></clipPath><clipPath id="ce17ddcd05"><path d="M 0.597656 0.460938 L 75.351562 0.460938 L 75.351562 75.214844 L 0.597656 75.214844 Z M 0.597656 0.460938 " clip-rule="nonzero"/></clipPath><clipPath id="fb17808f85"><path d="M 37.988281 0.460938 C 17.339844 0.460938 0.597656 17.199219 0.597656 37.847656 C 0.597656 58.496094 17.339844 75.238281 37.988281 75.238281 C 58.636719 75.238281 75.375 58.496094 75.375 37.847656 C 75.375 17.199219 58.636719 0.460938 37.988281 0.460938 Z M 37.988281 0.460938 " clip-rule="nonzero"/></clipPath><mask id="3075d15c41"><g filter="url(#753092b9f1)"><rect x="-7.575" width="90.9" fill="#000000" y="-7.575" height="90.899998" fill-opacity="0.59"/></g></mask><clipPath id="ff1a920303"><path d="M 2 1 L 16 1 L 16 18.605469 L 2 18.605469 Z M 2 1 " clip-rule="nonzero"/></clipPath><clipPath id="f9ba5bec40"><path d="M -2.648438 13.589844 L 10.144531 -2.019531 L 18.238281 4.613281 L 5.445312 20.222656 Z M -2.648438 13.589844 " clip-rule="nonzero"/></clipPath><clipPath id="682269f5e5"><path d="M -2.648438 13.589844 L 10.144531 -2.019531 L 18.238281 4.613281 L 5.445312 20.222656 Z M -2.648438 13.589844 " clip-rule="nonzero"/></clipPath><clipPath id="cfd0d2642c"><rect x="0" width="17" y="0" height="19"/></clipPath><clipPath id="347b53f6bb"><path d="M 15.808594 39.046875 L 61.789062 39.046875 L 61.789062 62.78125 L 15.808594 62.78125 Z M 15.808594 39.046875 " clip-rule="nonzero"/></clipPath><clipPath id="b332bf7039"><path d="M 26 12.890625 L 52 12.890625 L 52 39 L 26 39 Z M 26 12.890625 " clip-rule="nonzero"/></clipPath></defs><g clip-path="url(#d451142361)"><g clip-path="url(#da6e08e0df)"><path fill="#fff8f0" d="M 0.597656 0.460938 L 75.382812 0.460938 L 75.382812 75.242188 L 0.597656 75.242188 Z M 0.597656 0.460938 " fill-opacity="1" fill-rule="nonzero"/></g></g><g clip-path="url(#ce17ddcd05)"><g clip-path="url(#fb17808f85)"><path stroke-linecap="butt" transform="matrix(0.747533, 0, 0, 0.747533, 0.598932, 0.459977)" fill="none" stroke-linejoin="miter" d="M 50.016998 0.00128428 C 22.394884 0.00128428 -0.00170718 22.39265 -0.00170718 50.014764 C -0.00170718 77.636878 22.394884 100.033469 50.016998 100.033469 C 77.639112 100.033469 100.030478 77.636878 100.030478 50.014764 C 100.030478 22.39265 77.639112 0.00128428 50.016998 0.00128428 Z M 50.016998 0.00128428 " stroke="#997450" stroke-width="8" stroke-opacity="1" stroke-miterlimit="4"/></g></g><g mask="url(#3075d15c41)"><g transform="matrix(1, 0, 0, 1, 30, 40)"><g clip-path="url(#cfd0d2642c)"><g clip-path="url(#ff1a920303)"><g clip-path="url(#f9ba5bec40)"><g clip-path="url(#682269f5e5)"><path fill="#000000" d="M 15.253906 1.953125 C 15.648438 8.339844 4.09375 9.125 2.984375 18.203125 C 2.167969 7.710938 13.859375 8.550781 15.253906 1.953125 Z M 15.253906 1.953125 " fill-opacity="1" fill-rule="nonzero"/></g></g></g></g></g></g><g clip-path="url(#347b53f6bb)"><path fill="#866042" d="M 38.855469 62.78125 L 15.921875 62.78125 L 15.921875 61.75 C 15.921875 56.351562 17.777344 51.378906 20.890625 47.449219 C 24.0625 43.4375 28.542969 40.515625 33.679688 39.324219 L 34.5625 39.121094 L 34.875 39.972656 C 35.191406 40.832031 35.761719 41.570312 36.492188 42.085938 C 37.203125 42.582031 38.0625 42.875 38.996094 42.875 C 39.917969 42.875 40.769531 42.589844 41.476562 42.097656 C 42.203125 41.59375 42.777344 40.871094 43.097656 40.023438 L 43.421875 39.175781 L 44.300781 39.390625 C 49.371094 40.632812 53.785156 43.5625 56.90625 47.558594 C 59.964844 51.472656 61.789062 56.398438 61.789062 61.75 L 61.789062 62.78125 Z M 18.003906 60.722656 L 59.707031 60.722656 C 59.492188 56.238281 57.875 52.128906 55.289062 48.820312 C 52.613281 45.398438 48.902344 42.832031 44.625 41.601562 C 44.140625 42.472656 43.460938 43.222656 42.648438 43.789062 C 41.609375 44.511719 40.351562 44.933594 38.996094 44.933594 C 37.628906 44.933594 36.359375 44.5 35.3125 43.765625 C 34.492188 43.1875 33.808594 42.421875 33.328125 41.53125 C 28.992188 42.722656 25.21875 45.28125 22.5 48.71875 C 19.867188 52.042969 18.222656 56.191406 18.003906 60.722656 " fill-opacity="1" fill-rule="nonzero"/></g><g clip-path="url(#b332bf7039)"><path fill="#866042" d="M 38.855469 14.976562 C 35.941406 14.976562 33.304688 16.15625 31.394531 18.066406 C 29.484375 19.976562 28.304688 22.613281 28.304688 25.527344 C 28.304688 28.441406 29.484375 31.078125 31.394531 32.988281 C 33.304688 34.898438 35.941406 36.078125 38.855469 36.078125 C 41.769531 36.078125 44.40625 34.898438 46.316406 32.988281 C 48.226562 31.078125 49.40625 28.441406 49.40625 25.527344 C 49.40625 22.613281 48.226562 19.976562 46.316406 18.066406 C 44.40625 16.15625 41.769531 14.976562 38.855469 14.976562 Z M 29.9375 16.609375 C 32.222656 14.328125 35.375 12.917969 38.855469 12.917969 C 42.335938 12.917969 45.488281 14.328125 47.773438 16.609375 C 50.054688 18.894531 51.464844 22.046875 51.464844 25.527344 C 51.464844 29.007812 50.054688 32.160156 47.773438 34.445312 C 45.488281 36.726562 42.335938 38.136719 38.855469 38.136719 C 35.375 38.136719 32.222656 36.726562 29.9375 34.445312 C 27.65625 32.160156 26.246094 29.007812 26.246094 25.527344 C 26.246094 22.046875 27.65625 18.894531 29.9375 16.609375 " fill-opacity="1" fill-rule="nonzero"/></g><path fill="#866042" d="M 41.886719 19.777344 C 42.300781 21.039062 43.332031 22.191406 44.785156 23.109375 C 46.324219 24.078125 48.316406 24.773438 50.554688 25.074219 L 50.289062 27.109375 C 47.75 26.769531 45.472656 25.964844 43.691406 24.84375 C 41.835938 23.671875 40.5 22.144531 39.933594 20.414062 L 41.886719 19.777344 " fill-opacity="1" fill-rule="nonzero"/><path fill="#866042" d="M 27.953125 21.246094 C 28.664062 21.394531 29.476562 21.492188 30.347656 21.53125 C 32.863281 21.640625 35.84375 21.28125 38.3125 20.308594 C 40.613281 19.398438 42.441406 17.957031 42.875 15.878906 C 42.925781 15.628906 42.957031 15.371094 42.96875 15.105469 L 45.019531 15.191406 C 45.003906 15.578125 44.957031 15.945312 44.882812 16.296875 C 44.285156 19.164062 41.964844 21.074219 39.058594 22.222656 C 36.316406 23.304688 33.027344 23.703125 30.261719 23.582031 C 29.273438 23.535156 28.347656 23.425781 27.535156 23.257812 L 27.953125 21.246094 " fill-opacity="1" fill-rule="nonzero"/><path fill="#866042" d="M 36.644531 33.355469 L 20.179688 38.5 L 19.566406 36.539062 L 36.03125 31.390625 L 36.644531 33.355469 " fill-opacity="1" fill-rule="nonzero"/><path fill="#866042" d="M 21.058594 23.410156 C 19.835938 25.855469 20.796875 27.019531 21.609375 28.003906 C 22.757812 29.394531 23.730469 30.574219 21.984375 32.839844 L 20.359375 31.585938 C 21.105469 30.617188 20.609375 30.015625 20.023438 29.304688 C 18.824219 27.847656 17.40625 26.132812 19.226562 22.496094 L 21.058594 23.410156 " fill-opacity="1" fill-rule="nonzero"/><path fill="#866042" d="M 17.839844 26.601562 C 16.617188 29.046875 17.574219 30.207031 18.386719 31.195312 C 19.535156 32.585938 20.507812 33.765625 18.765625 36.03125 L 17.140625 34.777344 C 17.886719 33.808594 17.390625 33.207031 16.804688 32.496094 C 15.601562 31.039062 14.1875 29.324219 16.007812 25.683594 L 17.839844 26.601562 " fill-opacity="1" fill-rule="nonzero"/><path fill="#ffd3b3" d="M 39.058594 22.222656 C 36.316406 23.304688 33.027344 23.703125 30.261719 23.582031 C 29.648438 23.554688 29.0625 23.5 28.511719 23.425781 C 28.375 24.105469 28.304688 24.808594 28.304688 25.527344 C 28.304688 28.386719 29.4375 30.976562 31.285156 32.875 L 36.03125 31.390625 L 36.644531 33.355469 L 33.191406 34.433594 C 34.828125 35.476562 36.769531 36.078125 38.855469 36.078125 C 41.769531 36.078125 44.40625 34.898438 46.316406 32.988281 C 47.910156 31.394531 48.996094 29.296875 49.3125 26.953125 C 47.164062 26.554688 45.242188 25.820312 43.691406 24.84375 C 42.265625 23.945312 41.148438 22.835938 40.449219 21.585938 C 40.003906 21.820312 39.539062 22.03125 39.058594 22.222656 " fill-opacity="1" fill-rule="evenodd"/><path fill="#c8a47b" d="M 30.347656 21.53125 C 32.863281 21.640625 35.84375 21.28125 38.3125 20.308594 C 40.613281 19.398438 42.441406 17.957031 42.875 15.878906 C 42.878906 15.84375 42.886719 15.8125 42.894531 15.777344 C 41.648438 15.261719 40.285156 14.976562 38.855469 14.976562 C 35.941406 14.976562 33.304688 16.15625 31.394531 18.066406 C 30.4375 19.023438 29.660156 20.167969 29.125 21.433594 C 29.515625 21.480469 29.925781 21.511719 30.347656 21.53125 " fill-opacity="1" fill-rule="evenodd"/><path fill="#c8a47b" d="M 42.183594 20.472656 C 42.699219 21.460938 43.601562 22.363281 44.785156 23.109375 C 46.050781 23.90625 47.625 24.519531 49.386719 24.878906 C 49.226562 22.222656 48.082031 19.832031 46.316406 18.066406 C 45.84375 17.589844 45.320312 17.160156 44.761719 16.785156 C 44.332031 18.28125 43.410156 19.503906 42.183594 20.472656 " fill-opacity="1" fill-rule="evenodd"/><path fill="#ebcc90" d="M 38.996094 44.933594 C 37.628906 44.933594 36.359375 44.5 35.3125 43.765625 C 34.492188 43.1875 33.808594 42.421875 33.328125 41.53125 C 28.992188 42.722656 25.21875 45.28125 22.5 48.71875 C 19.867188 52.042969 18.222656 56.191406 18.003906 60.722656 L 59.707031 60.722656 C 59.492188 56.238281 57.875 52.128906 55.289062 48.820312 C 52.613281 45.398438 48.902344 42.832031 44.625 41.601562 C 44.140625 42.472656 43.460938 43.222656 42.648438 43.789062 C 41.609375 44.511719 40.351562 44.933594 38.996094 44.933594 " fill-opacity="1" fill-rule="evenodd"/></svg>